<svg width="108" height="56" viewBox="0 0 108 56" fill="none" xmlns="http://www.w3.org/2000/svg">
<path fill-rule="evenodd" clip-rule="evenodd" d="M7.70474 22.7037V41L0.0010376 33.2963V15.001L0 15H0.0010376V15L0.00104785 15H18.2963L26 22.7037H7.70474Z" fill="#0C0E1D"/>
<path fill-rule="evenodd" clip-rule="evenodd" d="M18.2953 33.2963L18.2953 15L25.999 22.7037L25.999 40.999L26 41H25.999V41L25.999 41H7.7037L-9.53674e-06 33.2963H18.2953Z" fill="#2A2D48"/>
<path d="M42.99 28.44C42.99 26.36 43.44 24.51 44.34 22.89C45.24 21.25 46.49 19.98 48.09 19.08C49.71 18.16 51.54 17.7 53.58 17.7C56.08 17.7 58.22 18.36 60 19.68C61.78 21 62.97 22.8 63.57 25.08H57.93C57.51 24.2 56.91 23.53 56.13 23.07C55.37 22.61 54.5 22.38 53.52 22.38C51.94 22.38 50.66 22.93 49.68 24.03C48.7 25.13 48.21 26.6 48.21 28.44C48.21 30.28 48.7 31.75 49.68 32.85C50.66 33.95 51.94 34.5 53.52 34.5C54.5 34.5 55.37 34.27 56.13 33.81C56.91 33.35 57.51 32.68 57.93 31.8H63.57C62.97 34.08 61.78 35.88 60 37.2C58.22 38.5 56.08 39.15 53.58 39.15C51.54 39.15 49.71 38.7 48.09 37.8C46.49 36.88 45.24 35.61 44.34 33.99C43.44 32.37 42.99 30.52 42.99 28.44ZM80.6916 24.6C80.3116 23.9 79.7616 23.37 79.0416 23.01C78.3416 22.63 77.5116 22.44 76.5516 22.44C74.8916 22.44 73.5616 22.99 72.5616 24.09C71.5616 25.17 71.0616 26.62 71.0616 28.44C71.0616 30.38 71.5816 31.9 72.6216 33C73.6816 34.08 75.1316 34.62 76.9716 34.62C78.2316 34.62 79.2916 34.3 80.1516 33.66C81.0316 33.02 81.6716 32.1 82.0716 30.9H75.5616V27.12H86.7216V31.89C86.3416 33.17 85.6916 34.36 84.7716 35.46C83.8716 36.56 82.7216 37.45 81.3216 38.13C79.9216 38.81 78.3416 39.15 76.5816 39.15C74.5016 39.15 72.6416 38.7 71.0016 37.8C69.3816 36.88 68.1116 35.61 67.1916 33.99C66.2916 32.37 65.8416 30.52 65.8416 28.44C65.8416 26.36 66.2916 24.51 67.1916 22.89C68.1116 21.25 69.3816 19.98 71.0016 19.08C72.6216 18.16 74.4716 17.7 76.5516 17.7C79.0716 17.7 81.1916 18.31 82.9116 19.53C84.6516 20.75 85.8016 22.44 86.3616 24.6H80.6916ZM100.303 39L95.9231 31.05H94.6931V39H89.5631V17.94H98.1731C99.8331 17.94 101.243 18.23 102.403 18.81C103.583 19.39 104.463 20.19 105.043 21.21C105.623 22.21 105.913 23.33 105.913 24.57C105.913 25.97 105.513 27.22 104.713 28.32C103.933 29.42 102.773 30.2 101.233 30.66L106.093 39H100.303ZM94.6931 27.42H97.8731C98.8131 27.42 99.5131 27.19 99.9731 26.73C100.453 26.27 100.693 25.62 100.693 24.78C100.693 23.98 100.453 23.35 99.9731 22.89C99.5131 22.43 98.8131 22.2 97.8731 22.2H94.6931V27.42Z" fill="#2A2D48"/>
</svg>
