<svg width="78" height="32" viewBox="0 0 78 32" fill="none" xmlns="http://www.w3.org/2000/svg">
<g clip-path="url(#clip0)">
<path d="M11.3903 11.1857H10.0742V15.0747H11.3903V11.1857Z" fill="#E3E5F8"/>
<path d="M8.8903 11.1857H7.57422V15.0747H8.8903V11.1857Z" fill="#E3E5F8"/>
<path d="M13.8903 11.1857H12.5742V15.0747H13.8903V11.1857Z" fill="#E3E5F8"/>
<path d="M6.13301 27.2071L5.68555 25.9466L15.5206 22.2775L15.9667 23.538L6.13301 27.2071Z" fill="#FAFAFF"/>
<path d="M6.13301 29.8892L5.68555 28.6286L15.5206 24.9595L15.9667 26.2201L6.13301 29.8892Z" fill="#FAFAFF"/>
<path d="M7.66426 32L7.2168 30.7394L13.9907 28.2129L14.4381 29.4721L7.66426 32Z" fill="#FAFAFF"/>
<path d="M16.4332 11.1978H15.125V17.0474C15.6112 16.6766 16.0506 16.246 16.4332 15.7654V11.1978Z" fill="#FAFAFF"/>
<path d="M10.8234 0C4.85501 0 0 4.96186 0 11.0636C0.00942744 12.9882 0.504546 14.8781 1.43777 16.5514C2.37098 18.2247 3.71093 19.6253 5.3288 20.6186L6.4909 20.1854V11.2004H5.18272V18.9074C3.98608 17.9945 3.01343 16.8113 2.34117 15.4508C1.6689 14.0903 1.31531 12.5895 1.30818 11.0663C1.30748 8.49214 2.30891 6.02281 4.09276 4.20009C5.87661 2.37737 8.2972 1.35012 10.8234 1.34373C16.0496 1.34373 20.2992 5.70614 20.2992 11.0663C20.2952 12.9032 19.7834 14.7018 18.8226 16.256C17.8617 17.8103 16.4907 19.0573 14.8664 19.8542L5.65387 23.2658L6.09871 24.5277L15.3389 21.1013L15.3955 21.0772C17.2511 20.1737 18.8185 18.7543 19.9171 16.9827C21.0156 15.2111 21.6006 13.1592 21.6047 11.0636C21.61 4.9632 16.7708 0 10.8234 0Z" fill="#FAFAFF"/>
<path d="M32.1214 13.8248V22.901H29.659V13.8248H26.5254V11.6523H35.2444V13.8248H32.1214ZM40.0494 18.2342V22.901H37.6805V10.9657H40.0494V15.2088C40.7654 14.4685 41.5682 14.0984 42.4578 14.0984C42.8784 14.0901 43.2959 14.1717 43.6835 14.338C44.0712 14.5044 44.4203 14.7516 44.7083 15.0639C45.3225 15.7076 45.6296 16.5659 45.6296 17.6387V22.901H43.2606V18.1698C43.2606 16.8395 42.782 16.1743 41.8248 16.1743C41.5943 16.1725 41.3658 16.2178 41.1529 16.3077C40.9399 16.3975 40.7468 16.53 40.5851 16.6973C40.228 17.046 40.0494 17.5583 40.0494 18.2342ZM51.0887 22.901H48.7197V14.2432H51.0887V22.901ZM56.6478 18.0732V22.901H54.2789V14.2432H56.6478V15.2088C57.3637 14.4685 58.1692 14.0984 59.0641 14.0984C59.4848 14.089 59.9027 14.1701 60.2904 14.3365C60.6782 14.5029 61.0272 14.7508 61.3146 15.0639C61.92 15.7076 62.2227 16.5659 62.2227 17.6387V22.901H59.8538V18.0089C59.8538 16.6785 59.3747 16.0134 58.4166 16.0134C58.1861 16.0117 57.9577 16.0571 57.7447 16.147C57.5318 16.2368 57.3387 16.3692 57.1769 16.5364C56.8241 16.8851 56.6478 17.3973 56.6478 18.0732ZM69.3927 20.8894C70.1823 20.8894 70.893 20.4871 71.5247 19.6825L72.9303 21.2917C71.8353 22.454 70.6509 23.0351 69.3769 23.0351C68.1029 23.0351 67.0264 22.6247 66.1472 21.804C65.2699 20.9833 64.8312 19.9105 64.8312 18.5855C64.8312 17.2606 65.2751 16.1797 66.163 15.3429C67.0198 14.5244 68.1552 14.0772 69.3295 14.0957C69.9667 14.1012 70.5969 14.2323 71.1852 14.4819C71.8093 14.7378 72.3722 15.1275 72.8356 15.6245L71.6037 17.2659C71.3312 16.9343 70.9883 16.6702 70.6009 16.4935C70.2321 16.319 69.8308 16.2276 69.4243 16.2253C68.8317 16.2142 68.2576 16.4361 67.8213 16.8448C67.3738 17.2579 67.1501 17.8318 67.1501 18.5667C67.1501 19.3016 67.3738 19.8729 67.8213 20.2806C68.25 20.6798 68.812 20.8975 69.3927 20.8894ZM75.623 22.6194C75.3893 22.3862 75.2424 22.0776 75.2073 21.7463C75.1722 21.415 75.2512 21.0815 75.4307 20.803C75.6103 20.5244 75.8792 20.3181 76.1915 20.2192C76.5038 20.1204 76.8402 20.1352 77.143 20.2611C77.4458 20.387 77.6963 20.6161 77.8516 20.9094C78.0069 21.2027 78.0574 21.5418 77.9945 21.8688C77.9315 22.1958 77.759 22.4904 77.5065 22.7022C77.254 22.9139 76.9371 23.0297 76.6101 23.0297C76.4268 23.0336 76.2446 22.9993 76.0748 22.9287C75.9051 22.8581 75.7513 22.7528 75.623 22.6194Z" fill="#FAFAFF"/>
<path d="M48.918 13.0068C48.6843 12.7737 48.5373 12.4651 48.5023 12.1338C48.4672 11.8024 48.5462 11.469 48.7257 11.1904C48.9052 10.9119 49.1742 10.7055 49.4865 10.6067C49.7988 10.5078 50.1351 10.5226 50.4379 10.6485C50.7408 10.7744 50.9912 11.0036 51.1466 11.2968C51.3019 11.5901 51.3524 11.9293 51.2894 12.2563C51.2265 12.5833 51.054 12.8779 50.8015 13.0896C50.549 13.3014 50.2321 13.4172 49.905 13.4172C49.7217 13.4211 49.5396 13.3867 49.3698 13.3161C49.2001 13.2456 49.0463 13.1403 48.918 13.0068Z" fill="#FAFAFF"/>
</g>
<defs>
<clipPath id="clip0">
<rect width="78" height="32" fill="white"/>
</clipPath>
</defs>
</svg>
