<svg width="322" height="72" viewBox="0 0 322 72" fill="none" xmlns="http://www.w3.org/2000/svg">
<g clip-path="url(#clip0)">
<path fill-rule="evenodd" clip-rule="evenodd" d="M21.976 20.7407H0.500047L9.54257 29.7832H31.0186L21.976 20.7407ZM9.54252 29.7833V51.2592L0.5 42.2167V20.7407L9.54252 29.7833Z" fill="#C9CCE4"/>
<path fill-rule="evenodd" clip-rule="evenodd" d="M9.5435 51.2593H31.0195L21.977 42.2168H0.500973L9.5435 51.2593ZM21.977 42.2167L21.977 20.7408L31.0195 29.7833L31.0195 51.2593L21.977 42.2167Z" fill="#FAFAFF"/>
<path d="M51.6035 36.104C51.6035 32.776 52.3235 29.816 53.7635 27.224C55.2035 24.6 57.2035 22.568 59.7635 21.128C62.3555 19.656 65.2835 18.92 68.5475 18.92C72.5475 18.92 75.9715 19.976 78.8195 22.088C81.6675 24.2 83.5715 27.08 84.5315 30.728H75.5075C74.8355 29.32 73.8755 28.248 72.6275 27.512C71.4115 26.776 70.0195 26.408 68.4515 26.408C65.9235 26.408 63.8755 27.288 62.3075 29.048C60.7395 30.808 59.9555 33.16 59.9555 36.104C59.9555 39.048 60.7395 41.4 62.3075 43.16C63.8755 44.92 65.9235 45.8 68.4515 45.8C70.0195 45.8 71.4115 45.432 72.6275 44.696C73.8755 43.96 74.8355 42.888 75.5075 41.48H84.5315C83.5715 45.128 81.6675 48.008 78.8195 50.12C75.9715 52.2 72.5475 53.24 68.5475 53.24C65.2835 53.24 62.3555 52.52 59.7635 51.08C57.2035 49.608 55.2035 47.576 53.7635 44.984C52.3235 42.392 51.6035 39.432 51.6035 36.104ZM97.122 19.304V39.464C97.122 41.48 97.618 43.032 98.61 44.12C99.602 45.208 101.058 45.752 102.978 45.752C104.898 45.752 106.37 45.208 107.394 44.12C108.418 43.032 108.93 41.48 108.93 39.464V19.304H117.138V39.416C117.138 42.424 116.498 44.968 115.218 47.048C113.938 49.128 112.21 50.696 110.034 51.752C107.89 52.808 105.49 53.336 102.834 53.336C100.178 53.336 97.794 52.824 95.682 51.8C93.602 50.744 91.954 49.176 90.738 47.096C89.522 44.984 88.914 42.424 88.914 39.416V19.304H97.122ZM154.442 29.96C153.834 28.84 152.954 27.992 151.802 27.416C150.682 26.808 149.354 26.504 147.818 26.504C145.162 26.504 143.034 27.384 141.434 29.144C139.834 30.872 139.034 33.192 139.034 36.104C139.034 39.208 139.866 41.64 141.53 43.4C143.226 45.128 145.546 45.992 148.49 45.992C150.506 45.992 152.202 45.48 153.578 44.456C154.986 43.432 156.01 41.96 156.65 40.04H146.234V33.992H164.09V41.624C163.482 43.672 162.442 45.576 160.97 47.336C159.53 49.096 157.69 50.52 155.45 51.608C153.21 52.696 150.682 53.24 147.866 53.24C144.538 53.24 141.562 52.52 138.938 51.08C136.346 49.608 134.314 47.576 132.842 44.984C131.402 42.392 130.682 39.432 130.682 36.104C130.682 32.776 131.402 29.816 132.842 27.224C134.314 24.6 136.346 22.568 138.938 21.128C141.53 19.656 144.49 18.92 147.818 18.92C151.85 18.92 155.242 19.896 157.994 21.848C160.778 23.8 162.618 26.504 163.514 29.96H154.442ZM176.344 25.88V32.696H187.336V39.032H176.344V46.424H188.776V53H168.136V19.304H188.776V25.88H176.344ZM217.845 19.304V25.88H208.917V53H200.709V25.88H191.781V19.304H217.845ZM248.32 53L241.312 40.28H239.344V53H231.136V19.304H244.912C247.568 19.304 249.824 19.768 251.68 20.696C253.568 21.624 254.976 22.904 255.904 24.536C256.832 26.136 257.296 27.928 257.296 29.912C257.296 32.152 256.656 34.152 255.376 35.912C254.128 37.672 252.272 38.92 249.808 39.656L257.584 53H248.32ZM239.344 34.472H244.432C245.936 34.472 247.056 34.104 247.792 33.368C248.56 32.632 248.944 31.592 248.944 30.248C248.944 28.968 248.56 27.96 247.792 27.224C247.056 26.488 245.936 26.12 244.432 26.12H239.344V34.472ZM270.157 25.88V32.696H281.149V39.032H270.157V46.424H282.589V53H261.949V19.304H282.589V25.88H270.157ZM309.785 29.96C309.177 28.84 308.297 27.992 307.145 27.416C306.025 26.808 304.697 26.504 303.161 26.504C300.505 26.504 298.377 27.384 296.777 29.144C295.177 30.872 294.377 33.192 294.377 36.104C294.377 39.208 295.209 41.64 296.873 43.4C298.569 45.128 300.889 45.992 303.833 45.992C305.849 45.992 307.545 45.48 308.921 44.456C310.329 43.432 311.353 41.96 311.993 40.04H301.577V33.992H319.433V41.624C318.825 43.672 317.785 45.576 316.313 47.336C314.873 49.096 313.033 50.52 310.793 51.608C308.553 52.696 306.025 53.24 303.209 53.24C299.881 53.24 296.905 52.52 294.281 51.08C291.689 49.608 289.657 47.576 288.185 44.984C286.745 42.392 286.025 39.432 286.025 36.104C286.025 32.776 286.745 29.816 288.185 27.224C289.657 24.6 291.689 22.568 294.281 21.128C296.873 19.656 299.833 18.92 303.161 18.92C307.193 18.92 310.585 19.896 313.337 21.848C316.121 23.8 317.961 26.504 318.857 29.96H309.785Z" fill="#FAFAFF"/>
</g>
<defs>
<clipPath id="clip0">
<rect width="320.519" height="72" fill="white" transform="translate(0.5)"/>
</clipPath>
</defs>
</svg>
