<svg xmlns="http://www.w3.org/2000/svg" width="1727.5" height="563.1" viewBox="0 0 1727.5 563.1" preserveAspectRatio="xMidYMid meet">
    <defs>
        <style>.cls-1{fill:#2a2d48;}</style>
    </defs>
    <g id="Layer_2" data-name="Layer 2">
        <g id="Full">
            <path class="cls-1" d="M25.2,104.1Q50.4,55.2,95.4,27.6T196.8,0q73.8,0,122.1,34.2,45.18,32,67.53,87.09a5.59,5.59,0,0,1-5.15,7.71h0a5.53,5.53,0,0,1-5.19-3.55A174.2,174.2,0,0,0,312,43.2Q265.78,10.8,196.8,10.8q-51.62,0-93.6,24.9T36.9,107.1Q12.6,153.6,12.6,216q0,61.8,24.3,108t66.6,71.1Q145.8,420,196.8,420q69,0,115.2-32.1A172.47,172.47,0,0,0,376.09,306a5.53,5.53,0,0,1,5.19-3.55h0a5.59,5.59,0,0,1,5.15,7.71q-22.35,55.08-67.53,86.79-48.3,33.9-122.1,33.9-56.4,0-101.4-27.3T25.2,327.3Q0,278.4,0,216,0,153,25.2,104.1Z"/>
            <path class="cls-1" d="M475.69,4.2a9.71,9.71,0,0,1,9.71,9.71V266.4q0,80.42,35.1,117T615.6,420q58.8,0,93-36.6t34.2-117V13.91a9.7,9.7,0,0,1,9.7-9.71h0a2.3,2.3,0,0,1,2.3,2.29V266.4q0,84-36.9,124.2T615.6,430.8q-65.4,0-103.8-40.5T473.4,266.4V6.49a2.3,2.3,0,0,1,2.29-2.29Z"/>
            <path class="cls-1" d="M973.39,140.57c-10.15,0-20,0-29.59,2.53-9.12,2.4-17.94,5.78-25.19,11.8l-3.22,2.67.15-11.16H830.39v.19H830v279h85.5v0h0V296q0-34.53,15.94-48.28T979.28,234h4c36.08,1.61,50.17,32.32,51.16,63,.11,3.35-.08,6.63-.08,9.63h77a222.5,222.5,0,0,0,2-22.5C1116.67,204.88,1062.39,140.57,973.39,140.57Z"/>
            <path class="cls-1" d="M1412.5,306.6H1219q2,26,16.75,39.75T1272,360.1q29,0,42-22.17a9.92,9.92,0,0,1,8.59-4.83h84.93a124.91,124.91,0,0,1-25.25,49.5,126.4,126.4,0,0,1-45.75,34.5Q1309,429.61,1275,429.6q-41,0-73-17.5a124.37,124.37,0,0,1-50-50q-18-32.49-18-76t17.75-76a122.86,122.86,0,0,1,49.75-50q32-17.49,73.5-17.5,40.5,0,72,17a122.15,122.15,0,0,1,49.25,48.5Q1414,239.6,1414,281.6A218.17,218.17,0,0,1,1412.5,306.6Zm-86-47.5q0-22-15-35t-37.5-13q-21.51,0-36.25,12.5t-18.25,35.5Z"/>
            <path class="cls-1" d="M1727.39,146.61v0h-85v9.16c-7.92-5.94-38-13.87-55.71-14.74q-6-.42-12.29-.42h-1c-2.78,0-5.42.08-8,.23-73.15,3.66-131,52.44-131,143.27,0,83.5,54,143.5,140,143.5,24.87,0,47.8-4.87,67.61-14.67v12.2q0,33.5-15.75,48.75T1584,489.1q-22,0-37-9.25t-19-25.25h-84.5q5.49,50,44,79.25T1588,563.1q46.5,0,77.75-18.5t46.5-49.75q15.24-31.25,15.25-69.75V146.6Zm-66.31,80.84a8,8,0,0,1-1.24,2.3c-6.94,8.88-58.41,77.41-83,124,0,0-6.55,11.43-20.27-.31s-54.4-51.57-54.4-51.57a9.58,9.58,0,0,1-2.07-12.56c4.3-7.72,26-29.2,29.28-31.08,2.95-1.71,6.08-4.17,16,6.72a123.16,123.16,0,0,1,16.12,22.79s36.24-58.22,79.61-73.54a23,23,0,0,1,11.21-1C1658.07,214,1665.06,217.39,1661.08,227.45Z"/>
            <path class="cls-1" d="M934.15,31.58c-9.81,0-17.76-6-26.76-10-1.23-.55-2-1-3.58-1.77a37.44,37.44,0,0,0-16.65-4,36.39,36.39,0,0,0-18.45,4.65A32.6,32.6,0,0,0,856,33.68a41.33,41.33,0,0,0-4.57,19.8A41.76,41.76,0,0,0,856,73.35a32.5,32.5,0,0,0,12.68,13.28,36.39,36.39,0,0,0,18.45,4.65q14,0,22.65-7.8t10.65-21.15H886.31a5,5,0,0,1-5-5V48.68h57.45V62a51.52,51.52,0,0,1-51.6,44.7,53.86,53.86,0,0,1-26.85-6.83,50.89,50.89,0,0,1-19.28-19,53.24,53.24,0,0,1-7.12-27.45A53.24,53.24,0,0,1,841,26a50.74,50.74,0,0,1,19.35-19,56.92,56.92,0,0,1,56.4,1.35,46.57,46.57,0,0,1,18.83,23.18Z"/>
            <path class="cls-1" d="M1030.71,70.88H967.55q.75,9.9,7.35,15.9a23.2,23.2,0,0,0,16.2,6q12.4,0,18.26-9.32a4.89,4.89,0,0,1,4.16-2.23h15.53a37.21,37.21,0,0,1-13.57,18.67q-9.83,7.27-24.38,7.28a42.19,42.19,0,0,1-21.22-5.33,37.89,37.89,0,0,1-14.7-15,45.74,45.74,0,0,1-5.33-22.42A46.85,46.85,0,0,1,955,42a36.38,36.38,0,0,1,14.55-14.92,43.28,43.28,0,0,1,21.52-5.25,42.16,42.16,0,0,1,20.86,5.1,36.15,36.15,0,0,1,14.25,14.32,43.27,43.27,0,0,1,5.09,21.23A54.77,54.77,0,0,1,1030.71,70.88Zm-17.25-13.8q-.16-9.45-6.75-15.15a24.18,24.18,0,0,0-16.36-5.7,21.92,21.92,0,0,0-15.14,5.62q-6.32,5.63-7.5,15.23Z"/>
            <path class="cls-1" d="M1068.05,37.13V82.88q0,4.65,2.18,6.67t7.42,2h0a10.5,10.5,0,0,1,10.5,10.5v3.75h-13.5q-11.55,0-17.7-5.4t-6.15-17.55V37.13h-9.75v-14h9.75V2.63h17.25V23.18h6.15a13.94,13.94,0,0,1,14,13.94h-20.1Z"/>
        </g>
    </g>
</svg>
