<svg width="253" height="159" viewBox="0 0 253 159" fill="none" xmlns="http://www.w3.org/2000/svg">
<g clip-path="url(#clip0_134_5973)">
<path fill-rule="evenodd" clip-rule="evenodd" d="M40.7308 39.4874C37.8754 39.4874 35.1067 39.4874 32.4065 40.1996C29.8432 40.8843 27.3598 41.8247 25.3307 43.5183L24.4177 44.2693L24.461 41.1308H0.508334V41.1833H0.398773V119.649H24.4473H24.461V83.193C24.461 76.7213 25.9546 72.1951 28.9416 69.6143C31.9287 67.0336 36.4138 65.7409 42.397 65.7363H43.5269C53.6772 66.1928 57.6396 74.8253 57.9181 83.4509C57.9501 84.3936 57.8953 85.3134 57.8953 86.158H79.5426C79.8411 84.0592 80.0331 81.9467 80.1178 79.8286C81.0331 57.5649 65.7654 39.4874 40.7308 39.4874Z" fill="#EDEDF1"/>
<path fill-rule="evenodd" clip-rule="evenodd" d="M164.242 86.1762H109.816C110.187 91.0547 111.757 94.7828 114.527 97.3605C117.296 99.9382 120.695 101.227 124.723 101.227C130.16 101.227 134.096 99.1485 136.532 94.9913C136.781 94.5722 137.134 94.2253 137.558 93.985C137.981 93.7448 138.46 93.6196 138.947 93.6218H162.836C161.543 98.7372 159.116 103.496 155.733 107.545C152.309 111.672 148.02 114.906 142.864 117.248C137.709 119.59 131.943 120.762 125.567 120.765C117.878 120.765 111.031 119.124 105.025 115.842C99.0186 112.56 94.3333 107.879 90.9689 101.8C87.5938 95.7057 85.9063 88.5797 85.9063 80.422C85.9063 72.2643 87.5702 65.1383 90.8981 59.044C94.226 52.9572 98.8907 48.2697 104.892 44.9814C110.894 41.693 117.785 40.0519 125.567 40.058C133.16 40.058 139.911 41.6558 145.818 44.8513C151.654 47.9696 156.465 52.7069 159.673 58.4939C162.999 64.401 164.663 71.2927 164.664 79.1689C164.657 81.5108 164.516 83.8504 164.242 86.1762ZM140.052 72.8121C140.052 68.6868 138.646 65.4053 135.834 62.9676C133.022 60.5299 129.505 59.3125 125.284 59.3156C121.253 59.3156 117.855 60.4873 115.088 62.8306C112.322 65.174 110.612 68.5012 109.959 72.8121H140.052Z" fill="#EDEDF1"/>
<path fill-rule="evenodd" clip-rule="evenodd" d="M252.815 41.1765V41.1628H228.906V43.7398C226.678 42.069 218.221 39.8389 213.236 39.5924C212.1 39.5224 210.948 39.4874 209.781 39.4874H209.498C208.717 39.4874 207.975 39.5103 207.263 39.5513C186.688 40.5808 170.4 54.3032 170.4 79.8491C170.4 103.336 185.59 120.213 209.781 120.213C216.774 120.213 223.222 118.844 228.796 116.086V119.51C228.796 125.792 227.319 130.363 224.366 133.223C221.412 136.084 217.451 137.514 212.481 137.512C208.354 137.512 204.885 136.645 202.075 134.91C199.264 133.175 197.482 130.809 196.729 127.809H172.957C173.988 137.183 178.114 144.613 185.333 150.1C192.551 155.587 201.974 158.327 213.601 158.317C222.321 158.317 229.61 156.583 235.47 153.116C241.33 149.648 245.691 144.983 248.551 139.121C251.414 133.261 252.845 126.724 252.845 119.508V41.1719L252.815 41.1765ZM234.165 63.9103C234.083 64.144 233.965 64.363 233.813 64.5586C231.862 67.0579 217.379 86.3315 210.481 99.424C210.481 99.424 208.637 102.638 204.775 99.3372C200.913 96.0367 189.482 84.8296 189.482 84.8296C189.482 84.8296 187.69 83.4601 188.9 81.2985C190.11 79.137 196.218 73.0815 197.133 72.5542C197.966 72.0749 198.845 71.3833 201.627 74.4441C203.377 76.4026 204.899 78.5536 206.163 80.8557C206.163 80.8557 216.359 64.4787 228.559 60.1693C229.569 59.813 230.652 59.7126 231.711 59.8771C233.316 60.1328 235.283 61.0846 234.165 63.9103Z" fill="#EDEDF1"/>
<path fill-rule="evenodd" clip-rule="evenodd" d="M29.6926 8.81727C26.9354 8.81727 24.6985 7.12821 22.1603 6.00293C21.8134 5.85 21.5988 5.72218 21.1515 5.50534C19.6974 4.77613 18.0944 4.39333 16.4677 4.38691C14.6544 4.3607 12.8665 4.81594 11.2864 5.7062C9.76926 6.57503 8.5322 7.85961 7.72115 9.40844C6.86293 11.0138 6.43381 12.8703 6.43381 14.9778C6.43381 17.0853 6.86293 18.9486 7.72115 20.5677C8.52449 22.1302 9.76268 23.4271 11.2864 24.3018C12.8692 25.1903 14.6598 25.6417 16.4746 25.6097C19.0904 25.6097 21.2138 24.8786 22.8451 23.4162C24.4763 21.9539 25.4753 19.9712 25.842 17.468H16.2372C16.0524 17.4683 15.8693 17.4322 15.6984 17.3616C15.5276 17.2911 15.3723 17.1876 15.2415 17.057C15.1107 16.9264 15.0069 16.7713 14.9361 16.6006C14.8653 16.4298 14.8289 16.2468 14.8289 16.062V13.6288H30.9845V17.3835C30.5181 20.8902 28.7843 24.1048 26.1104 26.4209C23.4365 28.737 20.0073 29.9943 16.47 29.9556C13.8288 29.9855 11.2257 29.3237 8.91947 28.036C6.66431 26.7794 4.79174 24.9352 3.50078 22.6995C2.1473 20.354 1.45474 17.6855 1.49674 14.9778C1.45508 12.2701 2.14762 9.6017 3.50078 7.25603C4.79752 5.01617 6.67936 3.17142 8.94458 1.91951C11.2455 0.637096 13.8405 -0.0244489 16.4746 -8.28782e-05C19.5971 -8.28782e-05 22.3749 0.766081 24.808 2.29841C27.2405 3.83166 29.1012 6.12227 30.1035 8.81727H29.6926Z" fill="#EDEDF1"/>
<path fill-rule="evenodd" clip-rule="evenodd" d="M56.8522 19.8715H39.0897C39.2297 21.7295 39.919 23.2207 41.1576 24.3452C42.3963 25.4697 43.918 26.032 45.7227 26.032C48.0463 26.032 49.7581 25.1586 50.8583 23.4117C50.9842 23.2163 51.1577 23.0561 51.3626 22.9463C51.5674 22.8365 51.7968 22.7806 52.0292 22.784H56.3888C55.7043 24.8943 54.3671 26.7326 52.5702 28.0338C50.729 29.4033 48.4465 30.088 45.7227 30.088C43.6357 30.1224 41.5767 29.6051 39.7539 28.5884C38.0043 27.6015 36.5703 26.139 35.618 24.3703C34.6182 22.555 34.1191 20.4528 34.1207 18.0637C34.1222 15.6747 34.6068 13.5718 35.5746 11.7549C36.4972 9.98616 37.9165 8.5256 39.658 7.55277C41.4156 6.56825 43.4333 6.07599 45.7113 6.07599C47.7575 6.04007 49.7782 6.53386 51.5773 7.5094C53.2695 8.44449 54.6599 9.84282 55.5854 11.5403C56.5395 13.2689 57.0173 15.2585 57.0188 17.5091C57.0252 18.2997 56.9694 19.0896 56.8522 19.8715ZM51.9996 15.9912C51.9722 14.2185 51.3399 12.798 50.1028 11.7298C48.8657 10.6616 47.3326 10.129 45.5035 10.132C43.9331 10.0976 42.4088 10.6643 41.2421 11.7161C40.0598 12.7706 39.3567 14.1979 39.1331 15.9981L51.9996 15.9912Z" fill="#EDEDF1"/>
<path fill-rule="evenodd" clip-rule="evenodd" d="M67.3586 10.3785V23.2473C67.3586 24.1193 67.5625 24.7454 67.9703 25.1258C68.3781 25.5063 69.0743 25.6957 70.0588 25.6942C70.8411 25.6978 71.5902 26.0101 72.1433 26.5633C72.6965 27.1164 73.0088 27.8655 73.0124 28.6478V29.7023H69.2143C67.0474 29.7023 65.388 29.1963 64.2361 28.1844C63.0842 27.1725 62.5075 25.5268 62.506 23.2473V10.3785H59.767V6.45489H62.506V0.684692H67.3586V6.45489H69.0888C70.1294 6.45489 71.1274 6.86827 71.8632 7.60409C72.599 8.33992 73.0124 9.33791 73.0124 10.3785H67.3586Z" fill="#EDEDF1"/>
<path d="M40.7308 39.4874C37.8754 39.4874 35.1067 39.4874 32.4065 40.1996C29.8432 40.8843 27.3598 41.8247 25.3307 43.5183L24.4177 44.2693L24.461 41.1308H0.508334V41.1833H0.398773V119.649H24.4473H24.461V83.193C24.461 76.7213 25.9546 72.1951 28.9416 69.6143C31.9287 67.0336 36.4138 65.7409 42.397 65.7363H43.5269C53.6772 66.1928 57.6396 74.8253 57.9181 83.4509C57.9501 84.3936 57.8953 85.3134 57.8953 86.158H79.5426C79.8411 84.0592 80.0331 81.9467 80.1178 79.8286C81.0331 57.5649 65.7654 39.4874 40.7308 39.4874Z" fill="#EDEDF1"/>
<path d="M164.242 86.1762H109.816C110.187 91.0547 111.757 94.7828 114.527 97.3605C117.296 99.9382 120.695 101.227 124.723 101.227C130.16 101.227 134.096 99.1485 136.532 94.9913C136.781 94.5722 137.134 94.2253 137.558 93.985C137.981 93.7448 138.46 93.6196 138.947 93.6218H162.836C161.543 98.7372 159.116 103.496 155.733 107.545C152.309 111.672 148.02 114.906 142.864 117.248C137.709 119.59 131.943 120.762 125.567 120.765C117.878 120.765 111.031 119.124 105.025 115.842C99.0186 112.56 94.3333 107.879 90.9689 101.8C87.5938 95.7057 85.9063 88.5797 85.9063 80.422C85.9063 72.2643 87.5702 65.1383 90.8981 59.044C94.226 52.9572 98.8907 48.2697 104.892 44.9814C110.894 41.693 117.785 40.0519 125.567 40.058C133.16 40.058 139.911 41.6558 145.818 44.8513C151.654 47.9696 156.465 52.7069 159.673 58.4939C162.999 64.401 164.663 71.2927 164.664 79.1689C164.657 81.5108 164.516 83.8504 164.242 86.1762ZM140.052 72.8121C140.052 68.6868 138.646 65.4053 135.834 62.9676C133.022 60.5299 129.505 59.3125 125.284 59.3156C121.253 59.3156 117.855 60.4873 115.088 62.8306C112.322 65.174 110.612 68.5012 109.959 72.8121H140.052Z" fill="#EDEDF1"/>
<path d="M252.815 41.1765V41.1628H228.906V43.7398C226.678 42.069 218.221 39.8389 213.236 39.5924C212.1 39.5224 210.948 39.4874 209.781 39.4874H209.498C208.717 39.4874 207.975 39.5103 207.263 39.5513C186.688 40.5808 170.4 54.3032 170.4 79.8491C170.4 103.336 185.59 120.213 209.781 120.213C216.774 120.213 223.222 118.844 228.796 116.086V119.51C228.796 125.792 227.319 130.363 224.366 133.223C221.412 136.084 217.451 137.514 212.481 137.512C208.354 137.512 204.885 136.645 202.075 134.91C199.264 133.175 197.482 130.809 196.729 127.809H172.957C173.988 137.183 178.114 144.613 185.333 150.1C192.551 155.587 201.974 158.327 213.601 158.317C222.321 158.317 229.61 156.583 235.47 153.116C241.33 149.648 245.691 144.983 248.551 139.121C251.414 133.261 252.845 126.724 252.845 119.508V41.1719L252.815 41.1765ZM234.165 63.9103C234.083 64.144 233.965 64.363 233.813 64.5586C231.862 67.0579 217.379 86.3315 210.481 99.424C210.481 99.424 208.637 102.638 204.775 99.3372C200.913 96.0367 189.482 84.8296 189.482 84.8296C189.482 84.8296 187.69 83.4601 188.9 81.2985C190.11 79.137 196.218 73.0815 197.133 72.5542C197.966 72.0749 198.845 71.3833 201.627 74.4441C203.377 76.4026 204.899 78.5536 206.163 80.8557C206.163 80.8557 216.359 64.4787 228.559 60.1693C229.569 59.813 230.652 59.7126 231.711 59.8771C233.316 60.1328 235.283 61.0846 234.165 63.9103Z" fill="#EDEDF1"/>
<path d="M29.6926 8.81727C26.9354 8.81727 24.6985 7.12821 22.1603 6.00293C21.8134 5.85 21.5988 5.72218 21.1515 5.50534C19.6974 4.77613 18.0944 4.39333 16.4677 4.38691C14.6544 4.3607 12.8665 4.81594 11.2864 5.7062C9.76926 6.57503 8.5322 7.85961 7.72115 9.40844C6.86293 11.0138 6.43381 12.8703 6.43381 14.9778C6.43381 17.0853 6.86293 18.9486 7.72115 20.5677C8.52449 22.1302 9.76268 23.4271 11.2864 24.3018C12.8692 25.1903 14.6598 25.6417 16.4746 25.6097C19.0904 25.6097 21.2138 24.8786 22.8451 23.4162C24.4763 21.9539 25.4753 19.9712 25.842 17.468H16.2372C16.0524 17.4683 15.8693 17.4322 15.6984 17.3616C15.5276 17.2911 15.3723 17.1876 15.2415 17.057C15.1107 16.9264 15.0069 16.7713 14.9361 16.6006C14.8653 16.4298 14.8289 16.2468 14.8289 16.062V13.6288H30.9845V17.3835C30.5181 20.8902 28.7843 24.1048 26.1104 26.4209C23.4365 28.737 20.0073 29.9943 16.47 29.9556C13.8288 29.9855 11.2257 29.3237 8.91947 28.036C6.66431 26.7794 4.79174 24.9352 3.50078 22.6995C2.1473 20.354 1.45474 17.6855 1.49674 14.9778C1.45508 12.2701 2.14762 9.6017 3.50078 7.25603C4.79752 5.01617 6.67936 3.17142 8.94458 1.91951C11.2455 0.637096 13.8405 -0.0244489 16.4746 -8.28782e-05C19.5971 -8.28782e-05 22.3749 0.766081 24.808 2.29841C27.2405 3.83166 29.1012 6.12227 30.1035 8.81727H29.6926Z" fill="#EDEDF1"/>
<path d="M56.8522 19.8715H39.0897C39.2297 21.7295 39.919 23.2207 41.1576 24.3452C42.3963 25.4697 43.918 26.032 45.7227 26.032C48.0463 26.032 49.7581 25.1586 50.8583 23.4117C50.9842 23.2163 51.1577 23.0561 51.3626 22.9463C51.5674 22.8365 51.7968 22.7806 52.0292 22.784H56.3888C55.7043 24.8943 54.3671 26.7326 52.5702 28.0338C50.729 29.4033 48.4465 30.088 45.7227 30.088C43.6357 30.1224 41.5767 29.6051 39.7539 28.5884C38.0043 27.6015 36.5703 26.139 35.618 24.3703C34.6182 22.555 34.1191 20.4528 34.1207 18.0637C34.1222 15.6747 34.6068 13.5718 35.5746 11.7549C36.4972 9.98616 37.9165 8.5256 39.658 7.55277C41.4156 6.56825 43.4333 6.07599 45.7113 6.07599C47.7575 6.04007 49.7782 6.53386 51.5773 7.5094C53.2695 8.44449 54.6599 9.84282 55.5854 11.5403C56.5395 13.2689 57.0173 15.2585 57.0188 17.5091C57.0252 18.2997 56.9694 19.0896 56.8522 19.8715ZM51.9996 15.9912C51.9722 14.2185 51.3399 12.798 50.1028 11.7298C48.8657 10.6616 47.3326 10.129 45.5035 10.132C43.9331 10.0976 42.4088 10.6643 41.2421 11.7161C40.0598 12.7706 39.3567 14.1979 39.1331 15.9981L51.9996 15.9912Z" fill="#EDEDF1"/>
<path d="M67.3586 10.3785V23.2473C67.3586 24.1193 67.5625 24.7454 67.9703 25.1258C68.3781 25.5063 69.0743 25.6957 70.0588 25.6942C70.8411 25.6978 71.5902 26.0101 72.1433 26.5633C72.6965 27.1164 73.0088 27.8655 73.0124 28.6478V29.7023H69.2143C67.0474 29.7023 65.388 29.1963 64.2361 28.1844C63.0842 27.1725 62.5075 25.5268 62.506 23.2473V10.3785H59.767V6.45489H62.506V0.684692H67.3586V6.45489H69.0888C70.1294 6.45489 71.1274 6.86827 71.8632 7.60409C72.599 8.33992 73.0124 9.33791 73.0124 10.3785H67.3586Z" fill="#EDEDF1"/>
</g>
<defs>
<clipPath id="clip0_134_5973">
<rect width="252.446" height="158.324" fill="white" transform="translate(0.398804)"/>
</clipPath>
</defs>
</svg>
