<svg width="488" height="159" viewBox="0 0 488 159" fill="none" xmlns="http://www.w3.org/2000/svg">
<g clip-path="url(#clip0_134_5962)">
<path d="M7.78421 29.2693C12.515 20.1033 19.1044 12.9336 27.5523 7.76017C36.0002 2.58672 45.5181 0 56.1061 0C69.9607 0 81.4216 3.20529 90.489 9.61586C98.9707 15.6141 105.309 23.7763 109.505 34.1026C109.603 34.3408 109.641 34.5993 109.615 34.8555C109.589 35.1116 109.501 35.3576 109.358 35.5717C109.214 35.7857 109.021 35.9614 108.794 36.0832C108.566 36.2051 108.313 36.2693 108.055 36.2704C107.739 36.2719 107.429 36.1772 107.168 35.9989C106.907 35.8206 106.707 35.5671 106.594 35.2722C103.084 25.9045 96.7856 17.8343 88.546 12.1463C79.8691 6.07317 69.0558 3.03659 56.1061 3.03659C46.4155 3.03659 37.6297 5.37026 29.7487 10.0376C21.8678 14.705 15.6445 21.3967 11.0789 30.1128C6.51703 38.829 4.2361 49.0353 4.2361 60.7317C4.2361 72.3158 6.51703 82.4377 11.0789 91.0976C15.6407 99.7575 21.8922 106.421 29.8332 111.088C37.7742 115.756 46.5319 118.09 56.1061 118.09C69.0596 118.09 79.8728 115.081 88.546 109.064C96.7915 103.425 103.094 95.3837 106.594 86.0366C106.707 85.7418 106.907 85.4883 107.168 85.31C107.429 85.1317 107.739 85.037 108.055 85.0385C108.313 85.0395 108.566 85.1038 108.794 85.2256C109.021 85.3475 109.214 85.5231 109.358 85.7372C109.501 85.9513 109.589 86.1972 109.615 86.4534C109.641 86.7095 109.603 86.9681 109.505 87.2063C105.309 97.5307 98.9707 105.665 90.489 111.609C81.4216 117.963 69.9607 121.14 56.1061 121.14C45.5181 121.14 36.0002 118.582 27.5523 113.464C19.1044 108.347 12.515 101.201 7.78421 92.0255C3.0534 82.8595 0.687988 72.4282 0.687988 60.7317C0.687988 48.9228 3.0534 38.4353 7.78421 29.2693Z" fill="#EDEDF1"/>
<path d="M134.641 1.18085C135.366 1.18085 136.061 1.46848 136.574 1.98048C137.087 2.49248 137.375 3.18689 137.375 3.91096V74.9024C137.375 89.9767 140.669 100.942 147.259 107.799C153.848 114.655 162.775 118.086 174.039 118.089C185.077 118.089 193.807 114.659 200.227 107.799C206.647 100.938 209.858 89.9729 209.858 74.9024V3.91096C209.857 3.55257 209.928 3.19762 210.065 2.86641C210.202 2.53519 210.403 2.2342 210.657 1.98065C210.91 1.7271 211.212 1.52596 211.543 1.38872C211.875 1.25148 212.23 1.18085 212.589 1.18085C212.76 1.18085 212.925 1.24859 213.046 1.36926C213.167 1.48993 213.236 1.65369 213.237 1.82472V74.9024C213.237 90.6477 209.773 102.288 202.846 109.823C195.919 117.358 186.316 121.126 174.039 121.126C161.761 121.126 152.018 117.33 144.809 109.739C137.6 102.147 133.996 90.5352 133.996 74.9024V1.82472C133.996 1.65418 134.065 1.49084 134.185 1.37025C134.306 1.24966 134.47 1.18159 134.641 1.18085Z" fill="#EDEDF1"/>
<path d="M274.791 39.5233C271.933 39.5233 269.159 39.5233 266.458 40.2347C263.89 40.9095 261.407 41.8598 259.365 43.5524L258.458 44.3031L258.501 41.1653H234.523V41.2187H234.413V119.664H258.489V83.2249C258.489 76.7524 259.986 72.2275 262.978 69.6502C265.97 67.0728 270.461 65.787 276.45 65.7926H277.576C287.736 66.2453 291.704 74.8799 291.982 83.506C292.013 84.4479 291.96 85.3702 291.96 86.2137H313.643C313.938 84.1158 314.126 82.0043 314.206 79.8874C315.138 57.6051 299.853 39.5233 274.791 39.5233Z" fill="#EDEDF1"/>
<path d="M398.443 86.2053H343.954C344.329 91.0788 345.902 94.8042 348.671 97.3816C351.44 99.9589 354.842 101.248 358.878 101.248C364.323 101.248 368.265 99.1698 370.705 95.0142C370.955 94.597 371.31 94.2522 371.734 94.014C372.158 93.7758 372.638 93.6525 373.124 93.6561H397.04C395.747 98.7696 393.317 103.527 389.93 107.574C386.436 111.749 382.028 115.068 377.047 117.274C371.881 119.619 366.106 120.79 359.723 120.789C352.026 120.789 345.174 119.148 339.167 115.868C333.21 112.641 328.319 107.758 325.087 101.81C321.708 95.7199 320.018 88.597 320.018 80.4414C320.018 72.2857 321.684 65.1628 325.016 59.0728C328.21 53.1202 333.08 48.2327 339.026 45.0145C345.033 41.7361 351.932 40.096 359.723 40.0941C367.326 40.0941 374.085 41.6874 379.998 44.8739C385.84 47.9914 390.655 52.7265 393.867 58.5105C397.199 64.4149 398.865 71.3035 398.865 79.1761C398.859 81.5253 398.718 83.8722 398.443 86.2053ZM374.225 72.8499C374.225 68.7261 372.817 65.4459 370.001 63.0091C367.186 60.5723 363.666 59.354 359.442 59.354C355.404 59.354 352.001 60.5255 349.234 62.8685C346.467 65.2116 344.754 68.5387 344.095 72.8499H374.225Z" fill="#EDEDF1"/>
<path d="M487.115 41.2217H463.179V43.7971C460.949 42.127 452.478 39.8974 447.491 39.6528C446.365 39.574 445.211 39.5347 444.03 39.5347H443.749C442.966 39.5347 442.222 39.5572 441.496 39.5993C420.897 40.6284 404.607 54.3436 404.607 79.8819C404.607 103.359 419.813 120.229 444.03 120.229C451.034 120.229 457.491 118.86 463.069 116.104V119.535C463.069 125.814 461.591 130.383 458.634 133.242C455.677 136.1 451.711 137.526 446.736 137.518C442.606 137.518 439.133 136.651 436.317 134.917C433.501 133.183 431.718 130.817 430.967 127.818H407.172C408.203 137.19 412.333 144.617 419.562 150.1C426.792 155.583 436.225 158.324 447.863 158.324C456.592 158.324 463.89 156.59 469.757 153.123C475.624 149.655 479.988 144.992 482.851 139.135C485.712 133.277 487.144 126.74 487.145 119.523V41.2189L487.115 41.2217ZM468.442 63.9511C468.362 64.1843 468.244 64.4028 468.093 64.5978C466.138 67.0945 451.645 86.3628 444.72 99.4623C444.72 99.4623 442.876 102.676 439.012 99.3751C435.149 96.0742 423.693 84.8754 423.693 84.8754C423.18 84.4602 422.837 83.8713 422.73 83.2203C422.622 82.5694 422.758 81.9017 423.111 81.344C424.321 79.1734 430.432 73.1339 431.356 72.6054C432.186 72.1246 433.068 71.4329 435.861 74.4948C437.613 76.452 439.136 78.6018 440.401 80.9025C440.401 80.9025 450.606 64.5331 462.818 60.2256C463.831 59.8723 464.916 59.7757 465.975 59.9445C467.594 60.1694 469.563 61.1226 468.442 63.9511Z" fill="#EDEDF1"/>
<path d="M263.741 8.87912C260.979 8.87912 258.74 7.19213 256.206 6.06747C255.859 5.91283 255.642 5.7863 255.197 5.56981C253.743 4.83831 252.138 4.45335 250.509 4.44514C248.692 4.41318 246.898 4.86441 245.313 5.75256C243.789 6.62409 242.547 7.91414 241.734 9.46957C240.848 11.1894 240.406 13.1029 240.447 15.0366C240.408 16.9765 240.85 18.8959 241.734 20.6234C242.54 22.1848 243.78 23.4812 245.305 24.3573C246.89 25.2454 248.683 25.6967 250.5 25.6647C253.129 25.6647 255.255 24.9337 256.879 23.4716C258.502 22.0096 259.502 20.0273 259.878 17.525H250.27C249.896 17.525 249.538 17.3768 249.274 17.1132C249.01 16.8496 248.862 16.492 248.862 16.1191V13.6871H265.039V17.4322C264.571 20.9367 262.835 24.1491 260.158 26.4641C257.482 28.7791 254.05 30.0369 250.509 30.0003C247.864 30.0294 245.257 29.3674 242.948 28.0799C240.688 26.8212 238.812 24.9752 237.519 22.7378C236.164 20.3934 235.471 17.7261 235.514 15.0198C235.47 12.3171 236.16 9.65295 237.51 7.31022C238.808 5.06888 240.691 3.22221 242.959 1.96808C245.411 0.647802 248.166 -0.0115628 250.951 0.0549987C253.736 0.12156 256.455 0.911749 258.841 2.34765C261.277 3.88001 263.141 6.1703 264.144 8.86507L263.741 8.87912Z" fill="#EDEDF1"/>
<path d="M290.932 19.929H273.146C273.287 21.7847 273.977 23.2748 275.216 24.3995C276.463 25.5272 278.097 26.1315 279.778 26.0865C282.106 26.0865 283.82 25.213 284.92 23.466C285.046 23.2713 285.22 23.1117 285.425 23.0021C285.63 22.8924 285.859 22.8364 286.091 22.839H290.465C289.78 24.949 288.442 26.7873 286.643 28.0884C284.798 29.4511 282.51 30.1334 279.778 30.1353C277.689 30.1691 275.628 29.6522 273.803 28.6367C272.052 27.6484 270.617 26.1864 269.663 24.4192C268.632 22.4803 268.115 20.3102 268.162 18.1155C268.113 15.9256 268.611 13.758 269.612 11.8089C270.539 10.0416 271.963 8.5834 273.71 7.61393C275.567 6.60535 277.656 6.09665 279.77 6.13781C281.819 6.10153 283.842 6.59554 285.644 7.57176C287.337 8.50582 288.729 9.90246 289.656 11.598C290.637 13.4327 291.131 15.4879 291.09 17.5672C291.098 18.3573 291.045 19.1469 290.932 19.929ZM286.075 16.0489C286.045 14.2776 285.411 12.8577 284.174 11.7892C282.889 10.7052 281.248 10.1343 279.567 10.1866C277.996 10.1524 276.471 10.7175 275.303 11.7667C274.117 12.8221 273.413 14.2494 273.192 16.0489H286.075Z" fill="#EDEDF1"/>
<path d="M301.447 10.4396V23.3029C301.447 24.1745 301.651 24.7997 302.061 25.1783C302.47 25.5569 303.166 25.7444 304.15 25.7406C304.934 25.7406 305.686 26.0517 306.241 26.6053C306.795 27.159 307.107 27.9099 307.107 28.6929V29.7472H303.305C301.137 29.7472 299.476 29.2411 298.321 28.2289C297.167 27.2167 296.589 25.5719 296.589 23.2945V10.4396H293.844V6.50327H296.589V0.73938H301.447V6.51733H303.179C303.696 6.51511 304.208 6.61485 304.686 6.81083C305.164 7.0068 305.599 7.29515 305.965 7.65933C306.332 8.0235 306.622 8.45633 306.821 8.93296C307.019 9.4096 307.121 9.92065 307.121 10.4368H301.461L301.447 10.4396Z" fill="#EDEDF1"/>
</g>
<defs>
<clipPath id="clip0_134_5962">
<rect width="486.457" height="158.324" fill="white" transform="translate(0.687988)"/>
</clipPath>
</defs>
</svg>
