<svg width="254" height="159" viewBox="0 0 254 159" fill="none" xmlns="http://www.w3.org/2000/svg">
<g clip-path="url(#clip0_134_5947)">
<path fill-rule="evenodd" clip-rule="evenodd" d="M40.9474 39.8943C38.092 39.8943 35.3233 39.8943 32.6231 40.6064C30.0598 41.2912 27.5764 42.2316 25.5473 43.9252L24.6343 44.6762L24.6776 41.5377H0.724932V41.5902H0.615372V120.056H24.6639H24.6776V83.5999C24.6776 77.1282 26.1712 72.6019 29.1582 70.0212C32.1453 67.4404 36.6304 66.1478 42.6136 66.1432H43.7435C53.8938 66.5997 57.8562 75.2322 58.1347 83.8578C58.1667 84.8005 58.1119 85.7203 58.1119 86.5648H79.7592C80.0577 84.4661 80.2497 82.3536 80.3344 80.2354C81.2497 57.9718 65.982 39.8943 40.9474 39.8943Z" fill="#324376"/>
<path fill-rule="evenodd" clip-rule="evenodd" d="M164.459 86.5831H110.032C110.404 91.4616 111.974 95.1897 114.743 97.7674C117.513 100.345 120.911 101.634 124.939 101.634C130.376 101.634 134.313 99.5554 136.749 95.3981C136.997 94.979 137.351 94.6321 137.774 94.3919C138.198 94.1516 138.677 94.0264 139.164 94.0286H163.053C161.76 99.144 159.332 103.903 155.95 107.952C152.526 112.079 148.236 115.313 143.081 117.655C137.925 119.997 132.16 121.169 125.784 121.172C118.095 121.172 111.247 119.531 105.241 116.249C99.2352 112.967 94.5499 108.286 91.1855 102.207C87.8104 96.1126 86.1229 88.9866 86.1229 80.8288C86.1229 72.6711 87.7868 65.5451 91.1147 59.4508C94.4426 53.3641 99.1073 48.6766 105.109 45.3882C111.11 42.0999 118.002 40.4588 125.784 40.4649C133.377 40.4649 140.127 42.0626 146.034 45.2581C151.87 48.3764 156.681 53.1138 159.889 58.9007C163.216 64.8079 164.88 71.6996 164.881 79.5757C164.874 81.9177 164.733 84.2572 164.459 86.5831ZM140.269 73.2189C140.269 69.0937 138.863 65.8122 136.051 63.3745C133.239 60.9367 129.722 59.7194 125.501 59.7224C121.47 59.7224 118.071 60.8941 115.305 63.2375C112.538 65.5809 110.829 68.908 110.176 73.2189H140.269Z" fill="#324376"/>
<path fill-rule="evenodd" clip-rule="evenodd" d="M253.032 41.5833V41.5697H229.122V44.1466C226.895 42.4758 218.438 40.2458 213.453 39.9993C212.316 39.9293 211.164 39.8943 209.997 39.8943H209.714C208.934 39.8943 208.192 39.9171 207.48 39.9582C186.905 40.9876 170.617 54.7101 170.617 80.256C170.617 103.743 185.807 120.62 209.997 120.62C216.991 120.62 223.439 119.25 229.013 116.493V119.917C229.013 126.198 227.536 130.77 224.582 133.63C221.629 136.491 217.667 137.921 212.697 137.919C208.571 137.919 205.102 137.052 202.291 135.317C199.481 133.582 197.699 131.215 196.946 128.216H173.173C174.205 137.59 178.33 145.02 185.549 150.507C192.768 155.994 202.191 158.733 213.818 158.724C222.537 158.724 229.827 156.99 235.687 153.522C241.547 150.054 245.907 145.39 248.768 139.528C251.63 133.668 253.061 127.13 253.061 119.915V41.5788L253.032 41.5833ZM234.381 64.3172C234.3 64.5509 234.181 64.7698 234.03 64.9654C232.078 67.4648 217.596 86.7383 210.698 99.8308C210.698 99.8308 208.854 103.045 204.992 99.7441C201.13 96.4436 189.699 85.2364 189.699 85.2364C189.699 85.2364 187.907 83.8669 189.117 81.7054C190.326 79.5438 196.434 73.4883 197.35 72.9611C198.183 72.4817 199.062 71.7901 201.844 74.851C203.594 76.8094 205.115 78.9604 206.379 81.2626C206.379 81.2626 216.575 64.8855 228.775 60.5761C229.786 60.2198 230.869 60.1195 231.928 60.284C233.532 60.5396 235.5 61.4914 234.381 64.3172Z" fill="#324376"/>
<path fill-rule="evenodd" clip-rule="evenodd" d="M29.9092 9.22413C27.1519 9.22413 24.9151 7.53507 22.3769 6.40979C22.03 6.25686 21.8154 6.12904 21.3681 5.9122C19.914 5.18299 18.311 4.80019 16.6843 4.79377C14.871 4.76756 13.0831 5.2228 11.503 6.11306C9.98586 6.98189 8.7488 8.26647 7.93775 9.8153C7.07952 11.4207 6.65041 13.2771 6.65041 15.3846C6.65041 17.4922 7.07952 19.3554 7.93775 20.9745C8.74109 22.5371 9.97928 23.8339 11.503 24.7087C13.0858 25.5972 14.8764 26.0486 16.6912 26.0166C19.3069 26.0166 21.4304 25.2854 23.0617 23.8231C24.6929 22.3608 25.6919 20.378 26.0586 17.8749H16.4538C16.269 17.8752 16.0859 17.839 15.915 17.7685C15.7442 17.698 15.5889 17.5944 15.4581 17.4639C15.3273 17.3333 15.2235 17.1782 15.1527 17.0074C15.0819 16.8367 15.0455 16.6537 15.0455 16.4688V14.0357H31.2011V17.7904C30.7347 21.297 29.0009 24.5117 26.327 26.8278C23.6531 29.1439 20.2239 30.4012 16.6866 30.3625C14.0454 30.3923 11.4423 29.7306 9.13607 28.4429C6.88091 27.1862 5.00834 25.3421 3.71738 23.1064C2.3639 20.7608 1.67134 18.0924 1.71333 15.3846C1.67168 12.677 2.36422 10.0086 3.71738 7.66289C5.01412 5.42303 6.89595 3.57828 9.16118 2.32637C11.4621 1.04396 14.0571 0.382411 16.6912 0.406777C19.8137 0.406777 22.5915 1.17294 25.0246 2.70527C27.4571 4.23852 29.3178 6.52913 30.3201 9.22413H29.9092Z" fill="#324376"/>
<path fill-rule="evenodd" clip-rule="evenodd" d="M57.0688 20.2783H39.3063C39.4463 22.1363 40.1356 23.6275 41.3742 24.752C42.6129 25.8765 44.1346 26.4388 45.9393 26.4388C48.2629 26.4388 49.9747 25.5654 51.0749 23.8185C51.2008 23.6231 51.3743 23.4629 51.5792 23.3531C51.784 23.2433 52.0134 23.1874 52.2458 23.1908H56.6054C55.9209 25.3011 54.5837 27.1394 52.7868 28.4406C50.9456 29.8101 48.6631 30.4948 45.9393 30.4948C43.8523 30.5292 41.7933 30.0119 39.9705 28.9952C38.2209 28.0083 36.7869 26.5458 35.8346 24.7771C34.8348 22.9618 34.3357 20.8596 34.3373 18.4705C34.3388 16.0815 34.8234 13.9786 35.7912 12.1617C36.7138 10.393 38.1331 8.93239 39.8746 7.95957C41.6322 6.97505 43.6499 6.48279 45.9279 6.48279C47.9741 6.44687 49.9948 6.94066 51.7939 7.9162C53.4861 8.85129 54.8765 10.2496 55.802 11.9471C56.7561 13.6757 57.2339 15.6653 57.2354 17.9159C57.2418 18.7065 57.186 19.4964 57.0688 20.2783ZM52.2162 16.398C52.1888 14.6253 51.5565 13.2048 50.3194 12.1366C49.0823 11.0684 47.5492 10.5358 45.7201 10.5388C44.1497 10.5044 42.6254 11.0711 41.4587 12.1229C40.2764 13.1774 39.5733 14.6047 39.3496 16.4049L52.2162 16.398Z" fill="#324376"/>
<path fill-rule="evenodd" clip-rule="evenodd" d="M67.5752 10.7854V23.6542C67.5752 24.5261 67.7791 25.1523 68.1869 25.5327C68.5947 25.9131 69.2909 26.1026 70.2754 26.1011C71.0577 26.1047 71.8068 26.417 72.3599 26.9701C72.9131 27.5232 73.2254 28.2724 73.229 29.0546V30.1091H69.4309C67.264 30.1091 65.6046 29.6032 64.4527 28.5913C63.3008 27.5794 62.7241 25.9337 62.7226 23.6542V10.7854H59.9836V6.86175H62.7226V1.09155H67.5752V6.86175H69.3054C70.346 6.86175 71.344 7.27513 72.0798 8.01095C72.8156 8.74678 73.229 9.74477 73.229 10.7854H67.5752Z" fill="#324376"/>
<path d="M40.9474 39.8943C38.092 39.8943 35.3233 39.8943 32.6231 40.6064C30.0598 41.2912 27.5764 42.2316 25.5473 43.9252L24.6343 44.6762L24.6776 41.5377H0.724932V41.5902H0.615372V120.056H24.6639H24.6776V83.5999C24.6776 77.1282 26.1712 72.6019 29.1582 70.0212C32.1453 67.4404 36.6304 66.1478 42.6136 66.1432H43.7435C53.8938 66.5997 57.8562 75.2322 58.1347 83.8578C58.1667 84.8005 58.1119 85.7203 58.1119 86.5648H79.7592C80.0577 84.4661 80.2497 82.3536 80.3344 80.2354C81.2497 57.9718 65.982 39.8943 40.9474 39.8943Z" fill="#324376"/>
<path d="M164.459 86.5831H110.032C110.404 91.4616 111.974 95.1897 114.743 97.7674C117.513 100.345 120.911 101.634 124.939 101.634C130.376 101.634 134.313 99.5554 136.749 95.3981C136.997 94.979 137.351 94.6321 137.774 94.3919C138.198 94.1516 138.677 94.0264 139.164 94.0286H163.053C161.76 99.144 159.332 103.903 155.95 107.952C152.526 112.079 148.236 115.313 143.081 117.655C137.925 119.997 132.16 121.169 125.784 121.172C118.095 121.172 111.247 119.531 105.241 116.249C99.2352 112.967 94.5499 108.286 91.1855 102.207C87.8104 96.1126 86.1229 88.9866 86.1229 80.8288C86.1229 72.6711 87.7868 65.5451 91.1147 59.4508C94.4426 53.3641 99.1073 48.6766 105.109 45.3882C111.11 42.0999 118.002 40.4588 125.784 40.4649C133.377 40.4649 140.127 42.0626 146.034 45.2581C151.87 48.3764 156.681 53.1138 159.889 58.9007C163.216 64.8079 164.88 71.6996 164.881 79.5757C164.874 81.9177 164.733 84.2572 164.459 86.5831ZM140.269 73.2189C140.269 69.0937 138.863 65.8122 136.051 63.3745C133.239 60.9367 129.722 59.7194 125.501 59.7224C121.47 59.7224 118.071 60.8941 115.305 63.2375C112.538 65.5809 110.829 68.908 110.176 73.2189H140.269Z" fill="#324376"/>
<path d="M253.032 41.5833V41.5697H229.122V44.1466C226.895 42.4758 218.438 40.2458 213.453 39.9993C212.316 39.9293 211.164 39.8943 209.997 39.8943H209.714C208.934 39.8943 208.192 39.9171 207.48 39.9582C186.905 40.9876 170.617 54.7101 170.617 80.256C170.617 103.743 185.807 120.62 209.997 120.62C216.991 120.62 223.439 119.25 229.013 116.493V119.917C229.013 126.198 227.536 130.77 224.582 133.63C221.629 136.491 217.667 137.921 212.697 137.919C208.571 137.919 205.102 137.052 202.291 135.317C199.481 133.582 197.699 131.215 196.946 128.216H173.173C174.205 137.59 178.33 145.02 185.549 150.507C192.768 155.994 202.191 158.733 213.818 158.724C222.537 158.724 229.827 156.99 235.687 153.522C241.547 150.054 245.907 145.39 248.768 139.528C251.63 133.668 253.061 127.13 253.061 119.915V41.5788L253.032 41.5833ZM234.381 64.3172C234.3 64.5509 234.181 64.7698 234.03 64.9654C232.078 67.4648 217.596 86.7383 210.698 99.8308C210.698 99.8308 208.854 103.045 204.992 99.7441C201.13 96.4436 189.699 85.2364 189.699 85.2364C189.699 85.2364 187.907 83.8669 189.117 81.7054C190.326 79.5438 196.434 73.4883 197.35 72.9611C198.183 72.4817 199.062 71.7901 201.844 74.851C203.594 76.8094 205.115 78.9604 206.379 81.2626C206.379 81.2626 216.575 64.8855 228.775 60.5761C229.786 60.2198 230.869 60.1195 231.928 60.284C233.532 60.5396 235.5 61.4914 234.381 64.3172Z" fill="#324376"/>
<path d="M29.9092 9.22413C27.1519 9.22413 24.9151 7.53507 22.3769 6.40979C22.03 6.25686 21.8154 6.12904 21.3681 5.9122C19.914 5.18299 18.311 4.80019 16.6843 4.79377C14.871 4.76756 13.0831 5.2228 11.503 6.11306C9.98586 6.98189 8.7488 8.26647 7.93775 9.8153C7.07952 11.4207 6.65041 13.2771 6.65041 15.3846C6.65041 17.4922 7.07952 19.3554 7.93775 20.9745C8.74109 22.5371 9.97928 23.8339 11.503 24.7087C13.0858 25.5972 14.8764 26.0486 16.6912 26.0166C19.3069 26.0166 21.4304 25.2854 23.0617 23.8231C24.6929 22.3608 25.6919 20.378 26.0586 17.8749H16.4538C16.269 17.8752 16.0859 17.839 15.915 17.7685C15.7442 17.698 15.5889 17.5944 15.4581 17.4639C15.3273 17.3333 15.2235 17.1782 15.1527 17.0074C15.0819 16.8367 15.0455 16.6537 15.0455 16.4688V14.0357H31.2011V17.7904C30.7347 21.297 29.0009 24.5117 26.327 26.8278C23.6531 29.1439 20.2239 30.4012 16.6866 30.3625C14.0454 30.3923 11.4423 29.7306 9.13607 28.4429C6.88091 27.1862 5.00834 25.3421 3.71738 23.1064C2.3639 20.7608 1.67134 18.0924 1.71333 15.3846C1.67168 12.677 2.36422 10.0086 3.71738 7.66289C5.01412 5.42303 6.89595 3.57828 9.16118 2.32637C11.4621 1.04396 14.0571 0.382411 16.6912 0.406777C19.8137 0.406777 22.5915 1.17294 25.0246 2.70527C27.4571 4.23852 29.3178 6.52913 30.3201 9.22413H29.9092Z" fill="#324376"/>
<path d="M57.0688 20.2783H39.3063C39.4463 22.1363 40.1356 23.6275 41.3742 24.752C42.6129 25.8765 44.1346 26.4388 45.9393 26.4388C48.2629 26.4388 49.9747 25.5654 51.0749 23.8185C51.2008 23.6231 51.3743 23.4629 51.5792 23.3531C51.784 23.2433 52.0134 23.1874 52.2458 23.1908H56.6054C55.9209 25.3011 54.5837 27.1394 52.7868 28.4406C50.9456 29.8101 48.6631 30.4948 45.9393 30.4948C43.8523 30.5292 41.7933 30.0119 39.9705 28.9952C38.2209 28.0083 36.7869 26.5458 35.8346 24.7771C34.8348 22.9618 34.3357 20.8596 34.3373 18.4705C34.3388 16.0815 34.8234 13.9786 35.7912 12.1617C36.7138 10.393 38.1331 8.93239 39.8746 7.95957C41.6322 6.97505 43.6499 6.48279 45.9279 6.48279C47.9741 6.44687 49.9948 6.94066 51.7939 7.9162C53.4861 8.85129 54.8765 10.2496 55.802 11.9471C56.7561 13.6757 57.2339 15.6653 57.2354 17.9159C57.2418 18.7065 57.186 19.4964 57.0688 20.2783ZM52.2162 16.398C52.1888 14.6253 51.5565 13.2048 50.3194 12.1366C49.0823 11.0684 47.5492 10.5358 45.7201 10.5388C44.1497 10.5044 42.6254 11.0711 41.4587 12.1229C40.2764 13.1774 39.5733 14.6047 39.3496 16.4049L52.2162 16.398Z" fill="#324376"/>
<path d="M67.5752 10.7854V23.6542C67.5752 24.5261 67.7791 25.1523 68.1869 25.5327C68.5947 25.9131 69.2909 26.1026 70.2754 26.1011C71.0577 26.1047 71.8068 26.417 72.3599 26.9701C72.9131 27.5232 73.2254 28.2724 73.229 29.0546V30.1091H69.4309C67.264 30.1091 65.6046 29.6032 64.4527 28.5913C63.3008 27.5794 62.7241 25.9337 62.7226 23.6542V10.7854H59.9836V6.86175H62.7226V1.09155H67.5752V6.86175H69.3054C70.346 6.86175 71.344 7.27513 72.0798 8.01095C72.8156 8.74678 73.229 9.74477 73.229 10.7854H67.5752Z" fill="#324376"/>
</g>
<defs>
<clipPath id="clip0_134_5947">
<rect width="252.446" height="158.324" fill="white" transform="translate(0.615356 0.406738)"/>
</clipPath>
</defs>
</svg>
