<svg width="389" height="175" viewBox="0 0 389 175" fill="none" xmlns="http://www.w3.org/2000/svg">
<g clip-path="url(#clip0_1410_50608)">
<g clip-path="url(#clip1_1410_50608)">
<g filter="url(#filter0_dd_1410_50608)">
<path d="M33.7225 140.434L31.5547 134.439L79.2259 116.981L81.3937 122.976L33.7225 140.434Z" fill="white"/>
<path d="M33.7225 153.191L31.5547 147.196L79.2259 129.741L81.3937 135.736L33.7225 153.191Z" fill="white"/>
<path d="M41.1399 163.236L38.972 157.241L71.8093 145.217L73.9772 151.212L41.1399 163.236Z" fill="white"/>
<path d="M85.2392 64.2826H78.9001V92.1083C81.258 90.3498 83.3874 88.3042 85.2392 86.0188V64.2826Z" fill="#F3B012"/>
<path d="M72.7956 64.2826H66.4169V82.7853H72.7956V64.2826Z" fill="#F8BB1C"/>
<path d="M60.312 64.2826H53.9333V82.7853H60.312V64.2826Z" fill="#F2C53D"/>
<path d="M47.8196 64.2826H41.4409V82.7853H47.8196V64.2826Z" fill="#F1D270"/>
<path d="M56.4544 11C27.5235 11 4 34.6118 4 63.6341C4 82.1155 13.874 99.4339 29.8314 109.086L35.4611 107.024V64.2826H29.1098V100.935C17.3968 92.1265 10.33 78.2883 10.33 63.6341C10.33 38.1284 31.0219 17.3939 56.4544 17.3939C81.7925 17.3939 102.408 38.1284 102.408 63.6341C102.389 72.3722 99.9081 80.928 95.2507 88.3215C90.5933 95.715 83.9475 101.647 76.0746 105.438L31.4025 121.666L33.5551 127.668L78.3733 111.384L78.6474 111.272C96.9309 102.616 108.738 83.9149 108.738 63.6341C108.738 34.6118 85.294 11 56.4544 11Z" fill="white"/>
</g>
<path d="M178.256 61.2362V70.5876H162.864V119H151.278V70.5876H135.885V61.2362H178.256ZM212.53 72.491C216.006 72.491 219.095 73.2634 221.798 74.8082C224.502 76.2978 226.598 78.5322 228.088 81.5114C229.633 84.4355 230.405 87.9664 230.405 92.1042V119H218.819V93.6766C218.819 90.0353 217.909 87.2492 216.088 85.3182C214.268 83.3321 211.785 82.339 208.64 82.339C205.44 82.339 202.902 83.3321 201.027 85.3182C199.206 87.2492 198.296 90.0353 198.296 93.6766V119H186.71V57.7604H198.296V78.8632C199.785 76.8771 201.771 75.3323 204.254 74.2289C206.737 73.0703 209.495 72.491 212.53 72.491ZM247.298 67.6912C245.257 67.6912 243.547 67.0567 242.167 65.7878C240.843 64.4637 240.181 62.8361 240.181 60.9051C240.181 58.9742 240.843 57.3742 242.167 56.1053C243.547 54.7812 245.257 54.1191 247.298 54.1191C249.34 54.1191 251.022 54.7812 252.346 56.1053C253.726 57.3742 254.415 58.9742 254.415 60.9051C254.415 62.8361 253.726 64.4637 252.346 65.7878C251.022 67.0567 249.34 67.6912 247.298 67.6912ZM253.009 73.1531V119H241.423V73.1531H253.009ZM289.862 72.491C295.323 72.491 299.737 74.2289 303.103 77.7047C306.468 81.1252 308.151 85.9251 308.151 92.1042V119H296.565V93.6766C296.565 90.0353 295.654 87.2492 293.834 85.3182C292.013 83.3321 289.531 82.339 286.386 82.339C283.186 82.339 280.648 83.3321 278.772 85.3182C276.952 87.2492 276.041 90.0353 276.041 93.6766V119H264.455V73.1531H276.041V78.8632C277.586 76.8771 279.545 75.3323 281.917 74.2289C284.344 73.0703 286.993 72.491 289.862 72.491ZM316.189 96.0765C316.189 91.3318 317.154 87.194 319.085 83.6631C321.016 80.077 323.692 77.3185 327.113 75.3875C330.533 73.4013 334.451 72.4083 338.864 72.4083C344.547 72.4083 349.236 73.8427 352.933 76.7116C356.684 79.5253 359.195 83.4976 360.464 88.6285H347.967C347.305 86.6423 346.174 85.0975 344.574 83.9941C343.03 82.8355 341.099 82.2562 338.781 82.2562C335.471 82.2562 332.851 83.47 330.92 85.8975C328.989 88.2699 328.023 91.6629 328.023 96.0765C328.023 100.435 328.989 103.828 330.92 106.256C332.851 108.628 335.471 109.814 338.781 109.814C343.471 109.814 346.533 107.718 347.967 103.525H360.464C359.195 108.49 356.684 112.435 352.933 115.359C349.181 118.283 344.492 119.745 338.864 119.745C334.451 119.745 330.533 118.779 327.113 116.848C323.692 114.862 321.016 112.104 319.085 108.573C317.154 104.987 316.189 100.821 316.189 96.0765ZM374.082 119.579C371.986 119.579 370.248 118.945 368.868 117.676C367.544 116.352 366.882 114.724 366.882 112.793C366.882 110.862 367.544 109.262 368.868 107.993C370.248 106.669 371.986 106.007 374.082 106.007C376.123 106.007 377.806 106.669 379.13 107.993C380.454 109.262 381.116 110.862 381.116 112.793C381.116 114.724 380.454 116.352 379.13 117.676C377.806 118.945 376.123 119.579 374.082 119.579Z" fill="white"/>
</g>
</g>
<defs>
<filter id="filter0_dd_1410_50608" x="-1.17226" y="6.47427" width="115.083" height="160.641" filterUnits="userSpaceOnUse" color-interpolation-filters="sRGB">
<feFlood flood-opacity="0" result="BackgroundImageFix"/>
<feColorMatrix in="SourceAlpha" type="matrix" values="0 0 0 0 0 0 0 0 0 0 0 0 0 0 0 0 0 0 127 0" result="hardAlpha"/>
<feOffset dx="2.58613" dy="1.29307"/>
<feGaussianBlur stdDeviation="1.29307"/>
<feComposite in2="hardAlpha" operator="out"/>
<feColorMatrix type="matrix" values="0 0 0 0 0.9 0 0 0 0 0.84949 0 0 0 0 0.69375 0 0 0 0.07 0"/>
<feBlend mode="normal" in2="BackgroundImageFix" result="effect1_dropShadow_1410_50608"/>
<feColorMatrix in="SourceAlpha" type="matrix" values="0 0 0 0 0 0 0 0 0 0 0 0 0 0 0 0 0 0 127 0" result="hardAlpha"/>
<feOffset dx="-2.58613" dy="-1.9396"/>
<feGaussianBlur stdDeviation="1.29307"/>
<feComposite in2="hardAlpha" operator="out"/>
<feColorMatrix type="matrix" values="0 0 0 0 0.898039 0 0 0 0 0.85098 0 0 0 0 0.694118 0 0 0 0.07 0"/>
<feBlend mode="normal" in2="effect1_dropShadow_1410_50608" result="effect2_dropShadow_1410_50608"/>
<feBlend mode="normal" in="SourceGraphic" in2="effect2_dropShadow_1410_50608" result="shape"/>
</filter>
<clipPath id="clip0_1410_50608">
<rect width="389" height="175" fill="white"/>
</clipPath>
<clipPath id="clip1_1410_50608">
<rect width="389" height="175" fill="white"/>
</clipPath>
</defs>
</svg>
