<svg width="1106" height="1106" viewBox="0 0 1106 1106" fill="none" xmlns="http://www.w3.org/2000/svg">
<path fill-rule="evenodd" clip-rule="evenodd" d="M176.7 379C164.19 379 152.06 379 140.23 382.12C129 385.12 118.12 389.24 109.23 396.66L105.23 399.95L105.42 386.2H0.48V386.43H0V730.2H105.36H105.42V570.48C105.42 542.127 111.963 522.297 125.05 510.99C138.137 499.683 157.787 494.02 184 494H188.95C233.42 496 250.78 533.82 252 571.61C252.14 575.74 251.9 579.77 251.9 583.47H346.74C348.048 574.275 348.889 565.02 349.26 555.74C353.27 458.2 286.38 379 176.7 379Z" fill="#2A2D48"/>
<path fill-rule="evenodd" clip-rule="evenodd" d="M717.821 583.55H479.371C480.998 604.923 487.878 621.257 500.011 632.55C512.144 643.843 527.034 649.49 544.681 649.49C568.501 649.49 585.748 640.383 596.421 622.17C597.508 620.334 599.056 618.814 600.912 617.762C602.768 616.709 604.867 616.16 607.001 616.17H711.661C705.997 638.581 695.361 659.43 680.541 677.17C665.541 695.25 646.748 709.42 624.161 719.68C601.574 729.94 576.314 735.077 548.381 735.09C514.694 735.09 484.694 727.9 458.381 713.52C432.068 699.14 411.541 678.633 396.801 652C382.014 625.3 374.621 594.08 374.621 558.34C374.621 522.6 381.911 491.38 396.491 464.68C411.071 438.013 431.508 417.477 457.801 403.07C484.094 388.663 514.288 381.473 548.381 381.5C581.648 381.5 611.221 388.5 637.101 402.5C662.668 416.162 683.746 436.917 697.801 462.27C712.374 488.15 719.664 518.343 719.671 552.85C719.64 563.11 719.022 573.36 717.821 583.55V583.55ZM611.841 525C611.841 506.927 605.681 492.55 593.361 481.87C581.041 471.19 565.634 465.857 547.141 465.87C529.481 465.87 514.591 471.003 502.471 481.27C490.351 491.537 482.861 506.113 480.001 525H611.841Z" fill="#2A2D48"/>
<path fill-rule="evenodd" clip-rule="evenodd" d="M1105.87 386.4V386.34H1001.12V397.63C991.361 390.31 954.311 380.54 932.471 379.46C927.491 379.153 922.444 379 917.331 379H916.091C912.671 379 909.421 379.1 906.301 379.28C816.161 383.79 744.801 443.91 744.801 555.83C744.801 658.73 811.351 732.67 917.331 732.67C947.971 732.67 976.221 726.67 1000.64 714.59V729.59C1000.64 757.11 994.171 777.137 981.231 789.67C968.291 802.203 950.934 808.467 929.161 808.46C911.081 808.46 895.884 804.66 883.571 797.06C871.257 789.46 863.451 779.09 860.151 765.95H756.001C760.521 807.017 778.594 839.57 810.221 863.61C841.847 887.65 883.131 899.65 934.071 899.61C972.271 899.61 1004.21 892.013 1029.88 876.82C1055.55 861.627 1074.66 841.19 1087.19 815.51C1099.73 789.837 1106 761.193 1106 729.58V386.38L1105.87 386.4ZM1024.16 486C1023.8 487.024 1023.28 487.983 1022.62 488.84C1014.07 499.79 950.621 584.23 920.401 641.59C920.401 641.59 912.321 655.67 895.401 641.21C878.481 626.75 828.401 577.65 828.401 577.65C828.401 577.65 820.551 571.65 825.851 562.18C831.151 552.71 857.911 526.18 861.921 523.87C865.571 521.77 869.421 518.74 881.611 532.15C889.277 540.73 895.943 550.154 901.481 560.24C901.481 560.24 946.151 488.49 999.601 469.61C1004.03 468.049 1008.77 467.609 1013.41 468.33C1020.44 469.45 1029.06 473.62 1024.16 486Z" fill="#2A2D48"/>
<path fill-rule="evenodd" clip-rule="evenodd" d="M128.339 244.63C116.259 244.63 106.459 237.23 95.3387 232.3C93.8187 231.63 92.8787 231.07 90.9187 230.12C84.5484 226.925 77.5251 225.248 70.3987 225.22C62.454 225.105 54.621 227.1 47.6987 231C41.0517 234.806 35.632 240.434 32.0787 247.22C28.3187 254.253 26.4387 262.387 26.4387 271.62C26.4387 280.853 28.3187 289.017 32.0787 296.11C35.5982 302.956 41.0229 308.638 47.6987 312.47C54.6329 316.363 62.4779 318.34 70.4287 318.2C81.8887 318.2 91.192 314.997 98.3387 308.59C105.485 302.183 109.862 293.497 111.469 282.53H69.3887C68.5789 282.531 67.7768 282.373 67.0283 282.064C66.2798 281.755 65.5995 281.301 65.0264 280.729C64.4534 280.157 63.9987 279.478 63.6885 278.73C63.3783 277.982 63.2187 277.18 63.2187 276.37V265.71H133.999V282.16C131.955 297.523 124.359 311.607 112.645 321.754C100.93 331.901 85.9061 337.41 70.4087 337.24C58.8371 337.371 47.4328 334.471 37.3287 328.83C27.4485 323.324 19.2445 315.245 13.5887 305.45C7.65889 295.174 4.62469 283.483 4.80868 271.62C4.62619 259.757 7.66029 248.067 13.5887 237.79C19.2699 227.977 27.5144 219.895 37.4387 214.41C47.5193 208.792 58.8886 205.893 70.4287 206C84.1087 206 96.2787 209.357 106.939 216.07C117.596 222.787 125.748 232.823 130.139 244.63H128.339Z" fill="#2A2D48"/>
<path fill-rule="evenodd" clip-rule="evenodd" d="M247.328 293.06H169.508C170.122 301.2 173.142 307.733 178.568 312.66C183.995 317.587 190.662 320.05 198.568 320.05C208.748 320.05 216.248 316.223 221.068 308.57C221.62 307.714 222.38 307.012 223.277 306.531C224.175 306.05 225.18 305.805 226.198 305.82H245.298C242.299 315.066 236.441 323.12 228.568 328.82C220.502 334.82 210.502 337.82 198.568 337.82C189.425 337.971 180.404 335.704 172.418 331.25C164.753 326.926 158.47 320.519 154.298 312.77C149.918 304.817 147.732 295.607 147.738 285.14C147.745 274.673 149.868 265.46 154.108 257.5C158.15 249.751 164.368 243.352 171.998 239.09C179.698 234.777 188.538 232.62 198.518 232.62C207.483 232.463 216.336 234.626 224.218 238.9C231.632 242.997 237.724 249.123 241.778 256.56C245.958 264.133 248.052 272.85 248.058 282.71C248.086 286.174 247.842 289.634 247.328 293.06ZM226.068 276.06C225.948 268.293 223.178 262.07 217.758 257.39C212.338 252.71 205.622 250.377 197.608 250.39C190.728 250.239 184.05 252.722 178.938 257.33C173.758 261.95 170.678 268.203 169.698 276.09L226.068 276.06Z" fill="#2A2D48"/>
<path fill-rule="evenodd" clip-rule="evenodd" d="M293.362 251.47V307.85C293.362 311.67 294.255 314.413 296.042 316.08C297.828 317.747 300.878 318.577 305.192 318.57C308.619 318.586 311.901 319.954 314.324 322.377C316.747 324.801 318.116 328.083 318.132 331.51V336.13H301.492C291.998 336.13 284.728 333.913 279.682 329.48C274.635 325.047 272.108 317.837 272.102 307.85V251.47H260.102V234.28H272.102V209H293.362V234.28H300.942C305.501 234.28 309.873 236.091 313.097 239.315C316.32 242.539 318.132 246.911 318.132 251.47H293.362Z" fill="#2A2D48"/>
<path d="M176.7 379C164.19 379 152.06 379 140.23 382.12C129 385.12 118.12 389.24 109.23 396.66L105.23 399.95L105.42 386.2H0.48V386.43H0V730.2H105.36H105.42V570.48C105.42 542.127 111.963 522.297 125.05 510.99C138.137 499.683 157.787 494.02 184 494H188.95C233.42 496 250.78 533.82 252 571.61C252.14 575.74 251.9 579.77 251.9 583.47H346.74C348.048 574.275 348.889 565.02 349.26 555.74C353.27 458.2 286.38 379 176.7 379Z" fill="#2A2D48"/>
<path d="M717.821 583.55H479.371C480.998 604.923 487.878 621.257 500.011 632.55C512.144 643.843 527.034 649.49 544.681 649.49C568.501 649.49 585.748 640.383 596.421 622.17C597.508 620.334 599.056 618.814 600.912 617.762C602.768 616.709 604.867 616.16 607.001 616.17H711.661C705.997 638.581 695.361 659.43 680.541 677.17C665.541 695.25 646.748 709.42 624.161 719.68C601.574 729.94 576.314 735.077 548.381 735.09C514.694 735.09 484.694 727.9 458.381 713.52C432.068 699.14 411.541 678.633 396.801 652C382.014 625.3 374.621 594.08 374.621 558.34C374.621 522.6 381.911 491.38 396.491 464.68C411.071 438.013 431.508 417.477 457.801 403.07C484.094 388.663 514.288 381.473 548.381 381.5C581.648 381.5 611.221 388.5 637.101 402.5C662.668 416.162 683.746 436.917 697.801 462.27C712.374 488.15 719.664 518.343 719.671 552.85C719.64 563.11 719.022 573.36 717.821 583.55V583.55ZM611.841 525C611.841 506.927 605.681 492.55 593.361 481.87C581.041 471.19 565.634 465.857 547.141 465.87C529.481 465.87 514.591 471.003 502.471 481.27C490.351 491.537 482.861 506.113 480.001 525H611.841Z" fill="#2A2D48"/>
<path d="M1105.87 386.4V386.34H1001.12V397.63C991.361 390.31 954.311 380.54 932.471 379.46C927.491 379.153 922.444 379 917.331 379H916.091C912.671 379 909.421 379.1 906.301 379.28C816.161 383.79 744.801 443.91 744.801 555.83C744.801 658.73 811.351 732.67 917.331 732.67C947.971 732.67 976.221 726.67 1000.64 714.59V729.59C1000.64 757.11 994.171 777.137 981.231 789.67C968.291 802.203 950.934 808.467 929.161 808.46C911.081 808.46 895.884 804.66 883.571 797.06C871.257 789.46 863.451 779.09 860.151 765.95H756.001C760.521 807.017 778.594 839.57 810.221 863.61C841.847 887.65 883.131 899.65 934.071 899.61C972.271 899.61 1004.21 892.013 1029.88 876.82C1055.55 861.627 1074.66 841.19 1087.19 815.51C1099.73 789.837 1106 761.193 1106 729.58V386.38L1105.87 386.4ZM1024.16 486C1023.8 487.024 1023.28 487.983 1022.62 488.84C1014.07 499.79 950.621 584.23 920.401 641.59C920.401 641.59 912.321 655.67 895.401 641.21C878.481 626.75 828.401 577.65 828.401 577.65C828.401 577.65 820.551 571.65 825.851 562.18C831.151 552.71 857.911 526.18 861.921 523.87C865.571 521.77 869.421 518.74 881.611 532.15C889.277 540.73 895.943 550.154 901.481 560.24C901.481 560.24 946.151 488.49 999.601 469.61C1004.03 468.049 1008.77 467.609 1013.41 468.33C1020.44 469.45 1029.06 473.62 1024.16 486Z" fill="#2A2D48"/>
<path d="M128.339 244.63C116.259 244.63 106.459 237.23 95.3387 232.3C93.8187 231.63 92.8787 231.07 90.9187 230.12C84.5484 226.925 77.5251 225.248 70.3987 225.22C62.454 225.105 54.621 227.1 47.6987 231C41.0517 234.806 35.632 240.434 32.0787 247.22C28.3187 254.253 26.4387 262.387 26.4387 271.62C26.4387 280.853 28.3187 289.017 32.0787 296.11C35.5982 302.956 41.0229 308.638 47.6987 312.47C54.6329 316.363 62.4779 318.34 70.4287 318.2C81.8887 318.2 91.192 314.997 98.3387 308.59C105.485 302.183 109.862 293.497 111.469 282.53H69.3887C68.5789 282.531 67.7768 282.373 67.0283 282.064C66.2798 281.755 65.5995 281.301 65.0264 280.729C64.4534 280.157 63.9987 279.478 63.6885 278.73C63.3783 277.982 63.2187 277.18 63.2187 276.37V265.71H133.999V282.16C131.955 297.523 124.359 311.607 112.645 321.754C100.93 331.901 85.9061 337.41 70.4087 337.24C58.8371 337.371 47.4328 334.471 37.3287 328.83C27.4485 323.324 19.2445 315.245 13.5887 305.45C7.65889 295.174 4.62469 283.483 4.80868 271.62C4.62619 259.757 7.66029 248.067 13.5887 237.79C19.2699 227.977 27.5144 219.895 37.4387 214.41C47.5193 208.792 58.8886 205.893 70.4287 206C84.1087 206 96.2787 209.357 106.939 216.07C117.596 222.787 125.748 232.823 130.139 244.63H128.339Z" fill="#2A2D48"/>
<path d="M247.328 293.06H169.508C170.122 301.2 173.142 307.733 178.568 312.66C183.995 317.587 190.662 320.05 198.568 320.05C208.748 320.05 216.248 316.223 221.068 308.57C221.62 307.714 222.38 307.012 223.277 306.531C224.175 306.05 225.18 305.805 226.198 305.82H245.298C242.299 315.066 236.441 323.12 228.568 328.82C220.502 334.82 210.502 337.82 198.568 337.82C189.425 337.971 180.404 335.704 172.418 331.25C164.753 326.926 158.47 320.519 154.298 312.77C149.918 304.817 147.732 295.607 147.738 285.14C147.745 274.673 149.868 265.46 154.108 257.5C158.15 249.751 164.368 243.352 171.998 239.09C179.698 234.777 188.538 232.62 198.518 232.62C207.483 232.463 216.336 234.626 224.218 238.9C231.632 242.997 237.724 249.123 241.778 256.56C245.958 264.133 248.052 272.85 248.058 282.71C248.086 286.174 247.842 289.634 247.328 293.06ZM226.068 276.06C225.948 268.293 223.178 262.07 217.758 257.39C212.338 252.71 205.622 250.377 197.608 250.39C190.728 250.239 184.05 252.722 178.938 257.33C173.758 261.95 170.678 268.203 169.698 276.09L226.068 276.06Z" fill="#2A2D48"/>
<path d="M293.362 251.47V307.85C293.362 311.67 294.255 314.413 296.042 316.08C297.828 317.747 300.878 318.577 305.192 318.57C308.619 318.586 311.901 319.954 314.324 322.377C316.747 324.801 318.116 328.083 318.132 331.51V336.13H301.492C291.998 336.13 284.728 333.913 279.682 329.48C274.635 325.047 272.108 317.837 272.102 307.85V251.47H260.102V234.28H272.102V209H293.362V234.28H300.942C305.501 234.28 309.873 236.091 313.097 239.315C316.32 242.539 318.132 246.911 318.132 251.47H293.362Z" fill="#2A2D48"/>
</svg>
